<svg height="512" viewBox="0 0 60 60" width="512" xmlns="http://www.w3.org/2000/svg"><g id="Page-1" fill="none" fill-rule="evenodd"><g id="129---Trash-File" fill-rule="nonzero"><g id="Icons" transform="translate(1 1)"><path id="Shape" d="m44 4v46c0 2.209139-1.790861 4-4 4l-36-2c-2.209139 0-4-1.790861-4-4v-35h9c2.209139 0 4-1.790861 4-4v-9h27c2.209139 0 4 1.790861 4 4z" fill="#00bcd4"/><path id="Shape" d="m40 0h-3c2.209139 0 4 1.790861 4 4v46c0 2.209139-1.790861 4-4 4h3c2.209139 0 4-1.790861 4-4v-46c0-2.209139-1.790861-4-4-4z" fill="#00838f"/><path id="Shape" d="m48 8v44c0 2.209139-1.790861 4-4 4h-36c-2.209139 0-4-1.790861-4-4h36c2.209139 0 4-1.790861 4-4v-44c2.209139 0 4 1.790861 4 4z" fill="#3f51b5"/><path id="Shape" d="m50.21 58h-20.42c-1.0199043.0011462-1.8773011-.7653407-1.99-1.779l-3.8-32.221h32l-3.8 32.221c-.1126989 1.0136593-.9700957 1.7801462-1.99 1.779z" fill="#9e9e9e"/><path id="Shape" d="m53 24-3.8 32.221c-.1126989 1.0136593-.9700957 1.7801462-1.99 1.7790013l3-.0000013c1.0199043.0011462 1.8773011-.7653407 1.99-1.779l3.8-32.221z" fill="#707070"/><rect id="Rectangle-path" fill="#607d8b" height="5" rx="2" width="36" x="22" y="19"/><path id="Shape" d="m56 19h-3c1.1045695 0 2 .8954305 2 2v1c0 1.1045695-.8954305 2-2 2h3c1.1045695 0 2-.8954305 2-2v-1c0-1.1045695-.8954305-2-2-2z" fill="#37474f"/><path id="Shape" d="m32 14h16c1.1045695 0 2 .8954305 2 2v3h-20v-3c0-1.1045695.8954305-2 2-2z" fill="#607d8b"/><path id="Shape" d="m48 14h-3c1.1045695 0 2 .8954305 2 2v3h3v-3c0-1.1045695-.8954305-2-2-2z" fill="#37474f"/><path id="Shape" d="m13 0v9c0 2.209139-1.790861 4-4 4h-9z" fill="#00695c"/><g fill="#f5f5f5"><path id="Shape" d="m34 5h-6c-.5522847 0-1-.44771525-1-1s.4477153-1 1-1h6c.5522847 0 1 .44771525 1 1s-.4477153 1-1 1z"/><path id="Shape" d="m40 5h-2c-.5522847 0-1-.44771525-1-1s.4477153-1 1-1h2c.5522847 0 1 .44771525 1 1s-.4477153 1-1 1z"/></g></g><g id="Layer_2" fill="#000"><path id="Shape" d="m57 19h-5v-2c-.0052514-1.2667854-.8056491-2.3937454-2-2.816v-5.184c-.0042686-2.40788675-1.724146-4.47073086-4.092-4.908-.4372691-2.36785399-2.5001132-4.08773136-4.908-4.092h-27c-.2651948.00005664-.5195073.10545063-.707.293l-13 13c-.18754937.1874927-.29294336.4418052-.293.707v35c.00426864 2.4078868 1.72414601 4.4707309 4.092 4.908.43726914 2.367854 2.50011325 4.0877314 4.908 4.092h18.971c.4201186 1.1972744 1.5501562 1.9990038 2.819 2h20.42c1.5267696.0022764 2.8107004-1.1446444 2.98-2.662l3.717-31.494c1.2421463-.3916325 2.0884376-1.5415858 2.093-2.844v-1c0-1.6568542-1.3431458-3-3-3zm-8-3c.5522847 0 1 .4477153 1 1v2h-18v-2c0-.5522847.4477153-1 1-1zm-1-7v5h-2v-7.816c1.1943509.42225455 1.9947486 1.54921457 2 2.816zm-35-5.586v6.586c0 1.6568542-1.3431458 3-3 3h-6.586zm-11 45.586v-34h8c2.7600532-.0033061 4.9966939-2.2399468 5-5v-8h26c1.6568542 0 3 1.34314575 3 3v9h-11c-1.6568542 0-3 1.3431458-3 3v2h-5c-1.6568542 0-3 1.3431458-3 3v1c.0045624 1.3024142.8508537 2.4523675 2.093 2.844l3.086 26.156h-22.179c-1.65685425 0-3-1.3431458-3-3zm4.184 5h21.232l.235 2h-18.651c-1.26678543-.0052514-2.39374545-.8056491-2.816-2zm46.016 3.11c-.0560293.5062684-.4836409.8895255-.993.89h-20.417c-.5131825-.0005068-.942682-.3893896-.994-.9l-3.671-31.1h29.75zm5.8-34.11c0 .5522847-.4477153 1-1 1h-32c-.5522847 0-1-.4477153-1-1v-1c0-.5522847.4477153-1 1-1h32c.5522847 0 1 .4477153 1 1z"/><path id="Shape" d="m41 56c.5522847 0 1-.4477153 1-1v-26c0-.5522847-.4477153-1-1-1s-1 .4477153-1 1v26c0 .5522847.4477153 1 1 1z"/><path id="Shape" d="m35 56c.0384444.0001585.0768586-.0021797.115-.007.5482802-.0632098.9416862-.5586597.879-1.107l-3-26c-.0781753-.5345667-.5668026-.9103913-1.1035298-.8487731-.5367273.0616183-.9274725.538398-.8824702 1.0767731l3 26c.0578673.5043038.4843876.8852483.992.886z"/><path id="Shape" d="m46.886 55.993c.0378135.0047446.0758901.0070827.114.007.5076124-.0007517.9341327-.3816962.992-.886l3-26c.0527635-.3607997-.0950415-.7217184-.3857192-.9418705-.2906776-.220152-.6781436-.2646345-1.0111497-.1160836s-.5587573.4665839-.5891311.8299541l-3 26c-.0626626.5486887.331316 1.0442959.88 1.107z"/></g></g></g></svg>