<svg height="512" viewBox="0 0 60 60" width="512" xmlns="http://www.w3.org/2000/svg"><g id="Page-1" fill="none" fill-rule="evenodd"><g id="002---Algebra-Test" fill-rule="nonzero"><g id="colour" transform="translate(1 1)"><path id="Shape" d="m38 11v7h-7c-1.6568542 0-3 1.3431458-3 3v34c0 1.6568542 1.3431458 3 3 3h-29c-1.1045695 0-2-.8954305-2-2v-54c0-1.1045695.8954305-2 2-2h25l.09.09-.09.09v8.82c0 1.1045695.8954305 2 2 2h8.82l.09-.09z" fill="#f4f4f4"/><path id="Shape" d="m24 .18v8.82c0 1.1045695.8954305 2 2 2h3c-1.1045695 0-2-.8954305-2-2v-8.82l.09-.09-.09-.09h-3l.09.09z" fill="#ced7db"/><path id="Shape" d="m37.91 10.91-.09.09h-2.82v7h3v-7z" fill="#ced7db"/><path id="Shape" d="m31 18h-3c-1.6568542 0-3 1.3431458-3 3v34c0 1.6568542 1.3431458 3 3 3h3c-1.6568542 0-3-1.3431458-3-3v-34c0-1.6568542 1.3431458-3 3-3z" fill="#ced7db"/><path id="Shape" d="m37.91 10.91-.09.09h-8.82c-1.1045695 0-2-.8954305-2-2v-8.82l.09-.09z" fill="#f4f4f4"/><rect id="Rectangle-path" fill="#a6c100" height="40" rx="3" width="30" x="28" y="18"/><path id="Shape" d="m55 18h-3c1.6568542 0 3 1.3431458 3 3v34c0 1.6568542-1.3431458 3-3 3h3c1.6568542 0 3-1.3431458 3-3v-34c0-1.6568542-1.3431458-3-3-3z" fill="#92aa00"/><path id="Shape" d="m50 22-8 14h-7l8-14z" fill="#f4f4f4"/><path id="Shape" d="m43 22-8 14h-2c-.5522847 0-1-.4477153-1-1v-12c0-.5522847.4477153-1 1-1z" fill="#2fbcd5"/><path id="Shape" d="m54 23v12c0 .5522847-.4477153 1-1 1h-11l8-14h3c.5522847 0 1 .4477153 1 1z" fill="#2fbcd5"/><g fill="#248800"><rect id="Rectangle-path" height="4" rx="1" width="4" x="33" y="41"/><rect id="Rectangle-path" height="4" rx="1" width="4" x="41" y="41"/><rect id="Rectangle-path" height="4" rx="1" width="4" x="49" y="41"/><rect id="Rectangle-path" height="4" rx="1" width="4" x="33" y="49"/><rect id="Rectangle-path" height="4" rx="1" width="4" x="41" y="49"/><rect id="Rectangle-path" height="4" rx="1" width="4" x="49" y="49"/></g></g><g id="outline" fill="#000"><path id="Shape" d="m56 18h-16v-6c.0015368-.265803-.1028135-.5212812-.29-.71l-11-11c-.1887188-.18718651-.444197-.29153676-.71-.29h-25c-1.65685425 0-3 1.34314575-3 3v54c0 1.6568542 1.34314575 3 3 3h53c2.209139 0 4-1.790861 4-4v-34c0-2.209139-1.790861-4-4-4zm-27-14.59 7.59 7.59h-6.59c-.5522847 0-1-.4477153-1-1zm-27 53.59v-54c0-.55228475.44771525-1 1-1h24v8c0 1.6568542 1.3431458 3 3 3h8v5h-6c-2.209139 0-4 1.790861-4 4v34c.0029552.7049599.1964484 1.3960071.56 2h-25.56c-.55228475 0-1-.4477153-1-1zm56-1c0 1.1045695-.8954305 2-2 2h-24c-1.1045695 0-2-.8954305-2-2v-34c0-1.1045695.8954305-2 2-2h24c1.1045695 0 2 .8954305 2 2z"/><path id="Shape" d="m54 22h-20c-1.1045695 0-2 .8954305-2 2v12c0 1.1045695.8954305 2 2 2h20c1.1045695 0 2-.8954305 2-2v-12c0-1.1045695-.8954305-2-2-2zm-4.72 2-6.86 12h-4.7l6.86-12zm-15.28 0h8.28l-6.86 12h-1.42zm10.72 12 6.86-12h2.42v12z"/><path id="Shape" d="m37 41h-2c-1.1045695 0-2 .8954305-2 2v2c0 1.1045695.8954305 2 2 2h2c1.1045695 0 2-.8954305 2-2v-2c0-1.1045695-.8954305-2-2-2zm-2 4v-2h2v2z"/><path id="Shape" d="m45 41h-2c-1.1045695 0-2 .8954305-2 2v2c0 1.1045695.8954305 2 2 2h2c1.1045695 0 2-.8954305 2-2v-2c0-1.1045695-.8954305-2-2-2zm-2 4v-2h2v2z"/><path id="Shape" d="m53 41h-2c-1.1045695 0-2 .8954305-2 2v2c0 1.1045695.8954305 2 2 2h2c1.1045695 0 2-.8954305 2-2v-2c0-1.1045695-.8954305-2-2-2zm-2 4v-2h2v2z"/><path id="Shape" d="m37 49h-2c-1.1045695 0-2 .8954305-2 2v2c0 1.1045695.8954305 2 2 2h2c1.1045695 0 2-.8954305 2-2v-2c0-1.1045695-.8954305-2-2-2zm-2 4v-2h2v2z"/><path id="Shape" d="m45 49h-2c-1.1045695 0-2 .8954305-2 2v2c0 1.1045695.8954305 2 2 2h2c1.1045695 0 2-.8954305 2-2v-2c0-1.1045695-.8954305-2-2-2zm-2 4v-2h2v2z"/><path id="Shape" d="m53 49h-2c-1.1045695 0-2 .8954305-2 2v2c0 1.1045695.8954305 2 2 2h2c1.1045695 0 2-.8954305 2-2v-2c0-1.1045695-.8954305-2-2-2zm-2 4v-2h2v2z"/><path id="Shape" d="m10.71 19.29c-.1877666-.1893127-.4433625-.2957983-.71-.2957983-.26663754 0-.5222334.1064856-.71.2957983l-1.29 1.3-1.29-1.3c-.39212217-.3921222-1.02787783-.3921222-1.42 0s-.39212217 1.0278778 0 1.42l1.3 1.29-1.3 1.29c-.18931265.1877666-.29579832.4433625-.29579832.71s.10648567.5222334.29579832.71c.1877666.1893127.44336246.2957983.71.2957983s.5222334-.1064856.71-.2957983l1.29-1.3 1.29 1.3c.1877666.1893127.44336246.2957983.71.2957983.2666375 0 .5222334-.1064856.71-.2957983.1893127-.1877666.2957983-.4433625.2957983-.71s-.1064856-.5222334-.2957983-.71l-1.3-1.29 1.3-1.29c.1893127-.1877666.2957983-.4433625.2957983-.71s-.1064856-.5222334-.2957983-.71z"/><path id="Shape" d="m18 23h-4c-.5522847 0-1 .4477153-1 1s.4477153 1 1 1h4c.5522847 0 1-.4477153 1-1s-.4477153-1-1-1z"/><path id="Shape" d="m18 19h-4c-.5522847 0-1 .4477153-1 1s.4477153 1 1 1h4c.5522847 0 1-.4477153 1-1s-.4477153-1-1-1z"/><path id="Shape" d="m23 16c-1.072484-.0006876-2.0637581.5712013-2.6 1.5-.2713883.4779792-.1061364 1.0853915.37 1.36.4753732.2730821 1.0819888.1125074 1.36-.36.2423998-.4198398.7510262-.6053424 1.2068-.4401355.4557739.165207.7274031.6335333.6444853 1.1111815-.0829179.4776482-.4964973.8270249-.9812853.828954-.5522847 0-1 .4477153-1 1v1c0 .5522847.4477153 1 1 1s1-.4477153 1-1v-.17c1.3799556-.4854369 2.2085937-1.8953836 1.9612879-3.3371763s-1.4984408-2.4950031-2.9612879-2.4928237z"/><circle id="Oval" cx="23" cy="26" r="1"/><path id="Shape" d="m9.29 32.29-1.29 1.3-1.29-1.3c-.39212218-.3921221-1.02787781-.3921221-1.41999996 0-.39212216.3921222-.39212218 1.0278778-.00000004 1.42l1.3 1.29-1.3 1.29c-.18931265.1877666-.29579832.4433625-.29579832.71s.10648567.5222334.29579832.71c.1877666.1893127.44336246.2957983.71.2957983s.5222334-.1064856.71-.2957983l4-4c.3921221-.3921222.3921221-1.0278778 0-1.42-.3921222-.3921221-1.02787782-.3921221-1.42 0z"/><path id="Shape" d="m18 36h-4c-.5522847 0-1 .4477153-1 1s.4477153 1 1 1h4c.5522847 0 1-.4477153 1-1s-.4477153-1-1-1z"/><path id="Shape" d="m18 32h-4c-.5522847 0-1 .4477153-1 1s.4477153 1 1 1h4c.5522847 0 1-.4477153 1-1s-.4477153-1-1-1z"/><path id="Shape" d="m23 29c-1.072484-.0006876-2.0637581.5712013-2.6 1.5-.2713883.4779792-.1061364 1.0853915.37 1.36.4753732.2730821 1.0819888.1125074 1.36-.36.2423998-.4198398.7510262-.6053424 1.2068-.4401355.4557739.165207.7274031.6335333.6444853 1.1111815-.0829179.4776482-.4964973.8270249-.9812853.828954-.5522847 0-1 .4477153-1 1v1c0 .5522847.4477153 1 1 1s1-.4477153 1-1v-.17c1.3799556-.4854369 2.2085937-1.8953836 1.9612879-3.3371763s-1.4984408-2.4950031-2.9612879-2.4928237z"/><circle id="Oval" cx="23" cy="39" r="1"/><path id="Shape" d="m10 49h-1.59l2.3-2.29c.2837446-.2875607.3665967-.7176029.21-1.09-.1534036-.3734255-.5162981-.6179849-.92-.62h-4c-.55228475 0-1 .4477153-1 1s.44771525 1 1 1h1.59l-2.3 2.29c-.28374456.2875607-.36659673.7176029-.21 1.09.1534036.3734255.51629811.6179849.92.62h4c.5522847 0 1-.4477153 1-1s-.4477153-1-1-1z"/><path id="Shape" d="m18 49h-4c-.5522847 0-1 .4477153-1 1s.4477153 1 1 1h4c.5522847 0 1-.4477153 1-1s-.4477153-1-1-1z"/><path id="Shape" d="m18 45h-4c-.5522847 0-1 .4477153-1 1s.4477153 1 1 1h4c.5522847 0 1-.4477153 1-1s-.4477153-1-1-1z"/><path id="Shape" d="m23 42c-1.072484-.0006876-2.0637581.5712013-2.6 1.5-.2713883.4779792-.1061364 1.0853915.37 1.36.4753732.2730821 1.0819888.1125074 1.36-.36.2423998-.4198398.7510262-.6053424 1.2068-.4401355.4557739.165207.7274031.6335333.6444853 1.1111815-.0829179.4776482-.4964973.8270249-.9812853.828954-.5522847 0-1 .4477153-1 1v1c0 .5522847.4477153 1 1 1s1-.4477153 1-1v-.17c1.3799556-.4854369 2.2085937-1.8953836 1.9612879-3.3371763s-1.4984408-2.4950031-2.9612879-2.4928237z"/><circle id="Oval" cx="23" cy="52" r="1"/></g></g></g></svg>