<svg id="Capa_1" enable-background="new 0 0 512 512" height="512" viewBox="0 0 512 512" width="512" xmlns="http://www.w3.org/2000/svg"><g><g><path d="m400.29 504.5h-288.58c-17.709 0-24.565-14.356-24.565-32.065v-384.774c0-17.709 6.856-32.065 24.565-32.065h288.58c17.709 0 32.065 14.356 32.065 32.065v384.774c0 17.709-14.356 32.065-32.065 32.065z" fill="#e2a975"/><path d="m392.274 456.403h-272.548c-4.427 0-8.016-3.589-8.016-8.016v-352.71c0-4.427 3.589-8.016 8.016-8.016h272.548c4.427 0 8.016 3.589 8.016 8.016v352.71c0 4.427-3.589 8.016-8.016 8.016z" fill="#fff"/><path d="m320.129 31.548h-27.564c-3.168 0-6.019-1.88-7.285-4.786-4.932-11.321-16.139-19.262-29.28-19.262s-24.348 7.941-29.281 19.263c-1.265 2.905-4.116 4.786-7.285 4.786h-27.564c-8.854 0-16.032 7.178-16.032 16.032v40.081h160.323v-40.081c0-8.855-7.178-16.033-16.032-16.033z" fill="#dad8db"/><path d="m175.839 432.355c-22.136 0-40.081-17.945-40.081-40.081v-304.613h-16.032c-4.427 0-8.016 3.589-8.016 8.016v352.71c0 4.427 3.589 8.016 8.016 8.016h272.548c4.427 0 8.016-3.589 8.016-8.016v-16.032z" fill="#faf5dc"/><path d="m199.887 47.581v-16.033h-8.016c-8.854 0-16.032 7.178-16.032 16.032v40.081h160.323v-24.048h-120.243c-8.854 0-16.032-7.178-16.032-16.032z" fill="#c8c5c9"/><path d="m104.381 456.403v-399.673c-13.805 3.576-24.736 16.007-24.736 30.931v384.774c0 17.709 14.356 32.065 32.065 32.065h288.58c14.924 0 27.355-10.243 30.931-24.048h-302.792c-13.281 0-24.048-10.767-24.048-24.049z" fill="#d19a6e"/></g><g><path d="m400.291 48.097h-56.629v-.516c0-12.976-10.557-23.532-23.532-23.532h-27.563c-.18 0-.333-.105-.409-.281-6.291-14.439-20.483-23.768-36.158-23.768s-29.867 9.329-36.156 23.768c-.077.176-.229.281-.409.281h-27.563c-12.976 0-23.532 10.557-23.532 23.532v.516h-56.629c-21.816 0-39.564 17.749-39.564 39.564v320.646c0 4.142 3.358 7.5 7.5 7.5s7.5-3.358 7.5-7.5v-320.646c0-13.545 11.02-24.564 24.564-24.564h56.629v17.064h-48.613c-8.556 0-15.516 6.96-15.516 15.516v352.71c0 8.556 6.96 15.516 15.516 15.516h272.549c8.556 0 15.516-6.96 15.516-15.516v-280.56c0-4.142-3.358-7.5-7.5-7.5s-7.5 3.358-7.5 7.5v280.561c0 .285-.231.516-.516.516h-272.55c-.285 0-.516-.231-.516-.516v-352.711c0-.285.231-.516.516-.516h272.549c.285 0 .516.231.516.516v40.08c0 4.142 3.358 7.5 7.5 7.5s7.5-3.358 7.5-7.5v-40.08c0-8.556-6.96-15.516-15.516-15.516h-48.613v-17.064h56.629c13.545 0 24.564 11.02 24.564 24.564v384.774c0 13.545-11.02 24.564-24.564 24.564h-288.582c-13.545 0-24.564-11.02-24.564-24.564v-32.062c0-4.142-3.358-7.5-7.5-7.5s-7.5 3.358-7.5 7.5v32.062c0 21.816 17.749 39.564 39.564 39.564h288.581c21.816 0 39.564-17.749 39.564-39.564v-384.774c.001-21.816-17.748-39.564-39.563-39.564zm-216.952 32.064v-32.58c0-4.705 3.828-8.532 8.532-8.532h27.563c6.144 0 11.703-3.646 14.161-9.291 3.906-8.965 12.7-14.758 22.405-14.758s18.499 5.793 22.404 14.758c2.458 5.644 8.017 9.291 14.161 9.291h27.563c4.705 0 8.532 3.828 8.532 8.532v32.581h-145.321z"/><path d="m256.08 32.064h-.08c-4.142 0-7.46 3.358-7.46 7.5s3.398 7.5 7.54 7.5 7.5-3.358 7.5-7.5-3.358-7.5-7.5-7.5z"/><path d="m154.503 173.126c1.464 1.464 3.384 2.197 5.303 2.197s3.839-.732 5.303-2.197l10.729-10.729 10.729 10.729c1.464 1.464 3.384 2.197 5.303 2.197s3.839-.732 5.303-2.197c2.929-2.929 2.929-7.678 0-10.606l-10.729-10.729 10.729-10.729c2.929-2.929 2.929-7.678 0-10.606-2.929-2.929-7.678-2.929-10.606 0l-10.729 10.729-10.729-10.729c-2.929-2.929-7.678-2.929-10.606 0-2.929 2.929-2.929 7.678 0 10.606l10.729 10.729-10.729 10.729c-2.929 2.928-2.929 7.677 0 10.606z"/><path d="m146.487 290.777c-2.929 2.929-2.929 7.678 0 10.606l16.032 16.032c1.464 1.464 3.384 2.197 5.303 2.197s3.839-.732 5.303-2.197l32.064-32.064c2.929-2.929 2.929-7.678 0-10.606-2.929-2.929-7.678-2.929-10.606 0l-26.761 26.761-10.729-10.729c-2.928-2.928-7.677-2.928-10.606 0z"/><path d="m231.952 143.258h80.161c4.142 0 7.5-3.358 7.5-7.5s-3.358-7.5-7.5-7.5h-80.161c-4.142 0-7.5 3.358-7.5 7.5s3.358 7.5 7.5 7.5z"/><path d="m231.952 175.323h120.242c4.142 0 7.5-3.358 7.5-7.5s-3.358-7.5-7.5-7.5h-120.242c-4.142 0-7.5 3.358-7.5 7.5s3.358 7.5 7.5 7.5z"/><path d="m154.503 245.271c1.464 1.464 3.384 2.197 5.303 2.197s3.839-.732 5.303-2.197l10.729-10.729 10.729 10.729c1.464 1.464 3.384 2.197 5.303 2.197s3.839-.732 5.303-2.197c2.929-2.929 2.929-7.678 0-10.606l-10.729-10.729 10.729-10.729c2.929-2.929 2.929-7.678 0-10.606-2.929-2.929-7.678-2.929-10.606 0l-10.729 10.729-10.728-10.73c-2.929-2.929-7.678-2.929-10.606 0-2.929 2.929-2.929 7.678 0 10.606l10.729 10.729-10.729 10.729c-2.93 2.929-2.93 7.678-.001 10.607z"/><path d="m231.952 215.403h80.161c4.142 0 7.5-3.358 7.5-7.5s-3.358-7.5-7.5-7.5h-80.161c-4.142 0-7.5 3.358-7.5 7.5s3.358 7.5 7.5 7.5z"/><path d="m231.952 247.468h120.242c4.142 0 7.5-3.358 7.5-7.5s-3.358-7.5-7.5-7.5h-120.242c-4.142 0-7.5 3.358-7.5 7.5s3.358 7.5 7.5 7.5z"/><path d="m231.952 287.548h80.161c4.142 0 7.5-3.358 7.5-7.5s-3.358-7.5-7.5-7.5h-80.161c-4.142 0-7.5 3.358-7.5 7.5s3.358 7.5 7.5 7.5z"/><path d="m359.693 312.113c0-4.142-3.358-7.5-7.5-7.5h-120.241c-4.142 0-7.5 3.358-7.5 7.5s3.358 7.5 7.5 7.5h120.242c4.141 0 7.499-3.358 7.499-7.5z"/><path d="m286.544 350.262c-1.393-3.384-4.656-5.569-8.314-5.569-.004 0-.008 0-.011 0-3.663.005-6.926 2.198-8.312 5.589-.022.056-.045.112-.066.169l-24.713 64.886c-1.474 3.871.468 8.204 4.339 9.678 3.871 1.475 8.204-.469 9.678-4.339l4.315-11.33h29.353l4.267 11.308c1.134 3.003 3.987 4.854 7.019 4.854.879 0 1.775-.156 2.646-.485 3.875-1.462 5.832-5.79 4.369-9.665l-24.488-64.889c-.026-.069-.054-.138-.082-.207zm-17.371 44.085 9.031-23.711 8.948 23.711z"/><path d="m344.177 407.791c4.142 0 7.5-3.358 7.5-7.5v-8.532h8.532c4.142 0 7.5-3.358 7.5-7.5s-3.358-7.5-7.5-7.5h-8.532v-8.533c0-4.142-3.358-7.5-7.5-7.5s-7.5 3.358-7.5 7.5v8.533h-8.532c-4.142 0-7.5 3.358-7.5 7.5s3.358 7.5 7.5 7.5h8.532v8.532c0 4.142 3.358 7.5 7.5 7.5z"/></g></g></svg>