<svg id="Capa_1" enable-background="new 0 0 512 512" height="512" viewBox="0 0 512 512" width="512" xmlns="http://www.w3.org/2000/svg"><path d="m375.757 263.522-205.831 191.689-127.279 14.142c46.863 46.863 122.843 46.863 169.706 0l128.5-128.5c21.517-21.518 33.147-49.174 34.904-77.331z" fill="#6241ea"/><path d="m340.853 171.147c-15.456-15.456-34.08-25.811-53.781-31.072-26.868-26.872-42.424-42.424-115.913 31.06l-128.512 128.512c-46.863 46.863-46.863 122.843 0 169.706 35.147 35.147 101.629 25.65 148.492-21.213l184.618-184.618c2.071-33.167-9.559-67.029-34.904-92.375zm-170.926 255.779c-23.432 23.432-61.421 23.432-84.853 0s-23.432-61.421 0-84.853l55.002-55.002 73.498 53.781c-35.147-35.147-35.147-92.132 0-127.279 23.432-23.432 61.421-23.432 84.853 0s23.432 61.421 0 84.853z" fill="#725fee"/><path d="m469.353 42.647-14.142 127.279-156.785 156.785-127.279 14.142c46.863 46.863 122.843 46.863 169.706 0l128.5-128.5c46.863-46.863 46.863-122.843 0-169.706z" fill="#28abfa"/><path d="m469.353 42.647c-46.863-46.863-122.843-46.863-169.706 0l-128.5 128.5c31.407-31.407 75.891-41.762 115.925-31.072l55.002-55.002c23.432-23.432 61.421-23.432 84.853 0s23.432 61.421 0 84.853l-128.5 128.5c-23.431 23.432-61.421 23.432-84.853 0s-23.431-61.421 0-84.853l-73.498 73.498c5.261 19.701 15.616 38.325 31.072 53.781 35.147 35.147 101.63 25.65 148.492-21.213l128.5-128.5c46.862-46.862 56.36-113.345 21.213-148.492z" fill="#4fdbff"/><path d="m512 127.5c0-34.057-13.263-66.074-37.344-90.155-24.082-24.082-56.099-37.345-90.156-37.345s-66.074 13.263-90.156 37.344l-256.999 257c-24.082 24.082-37.345 56.099-37.345 90.156s13.263 66.074 37.344 90.155c24.082 24.082 56.099 37.345 90.156 37.345s66.074-13.263 90.156-37.344l256.999-257c24.082-24.082 37.345-56.099 37.345-90.156zm-304.951 336.55c-21.248 21.248-49.499 32.95-79.549 32.95s-58.301-11.702-79.55-32.951c-21.248-21.248-32.95-49.499-32.95-79.549s11.702-58.301 32.951-79.549l128.495-128.495c21.253-21.254 49.504-32.956 79.554-32.956s58.301 11.702 79.549 32.951c12.97 12.97 22.568 28.908 27.94 46.306l-40.412 40.412c2.075-19.589-4.366-39.917-19.347-54.9-26.312-26.31-69.119-26.317-95.439-.019-.021.02-128.521 128.521-128.521 128.521-26.317 26.318-26.317 69.141.001 95.46 13.159 13.158 30.444 19.737 47.729 19.737s34.571-6.579 47.73-19.737l51.981-51.982c9.333 2.144 18.975 3.251 28.789 3.251 12.732 0 25.179-1.855 37.033-5.435zm86.074-170.927c-20.476 20.469-53.779 20.466-74.246.001-20.463-20.464-20.469-53.756-.02-74.227 10.261-10.258 23.699-15.372 37.143-15.372 13.442 0 26.89 5.119 37.123 15.352 20.463 20.463 20.469 53.755 0 74.246zm-156.419 7.926c6.366 16.848 16.297 32.263 29.139 45.107 13.016 13.015 28.353 22.863 45.074 29.172l-46.293 46.295c-10.236 10.236-23.678 15.354-37.124 15.353-13.442-.002-26.89-5.119-37.123-15.352-20.47-20.471-20.47-53.777 0-74.247zm198.847 34.498c-21.25 21.251-49.501 32.953-79.551 32.953s-58.301-11.702-79.549-32.951c-12.97-12.97-22.568-28.908-27.94-46.306l40.412-40.412c-2.075 19.589 4.366 39.917 19.347 54.9 13.159 13.158 30.444 19.737 47.729 19.737 17.277 0 34.554-6.573 47.711-19.719.02-.018 128.52-128.519 128.52-128.519 26.317-26.318 26.317-69.141-.001-95.46-26.318-26.316-69.142-26.316-95.46 0l-31.268 31.269c-2.929 2.93-2.929 7.678 0 10.607 2.93 2.928 7.678 2.927 10.607-.001l31.267-31.268c20.469-20.471 53.776-20.47 74.247-.001 20.47 20.471 20.47 53.777 0 74.247l-46.328 46.328c-6.366-16.848-16.297-32.263-29.139-45.107-24.081-24.081-56.098-37.344-90.155-37.344-12.732 0-25.179 1.855-37.033 5.435l85.984-85.984c21.248-21.249 49.499-32.951 79.549-32.951s58.301 11.702 79.549 32.95c21.249 21.249 32.951 49.5 32.951 79.55s-11.702 58.301-32.951 79.549z"/></svg>